HIERARCHY
ROOT Hips
{
	OFFSET -32.860001 56.121803 44.745396
	CHANNELS 6 Xposition Yposition Zposition Zrotation Xrotation Yrotation
	JOINT Chest
	{
		OFFSET -0.637402 0.831600 5.390099
		CHANNELS 6 Xposition Yposition Zposition Zrotation Xrotation Yrotation
		JOINT Chest2
		{
			OFFSET 0.000000 0.000000 4.429901
			CHANNELS 6 Xposition Yposition Zposition Zrotation Xrotation Yrotation
			JOINT Neck
			{
				OFFSET 0.000000 0.000000 10.301395
				CHANNELS 6 Xposition Yposition Zposition Zrotation Xrotation Yrotation
				JOINT Head
				{
					OFFSET 0.000000 0.000000 2.173897
					CHANNELS 6 Xposition Yposition Zposition Zrotation Xrotation Yrotation
					End Site
					{
						OFFSET 0.000000 0.000000 8.298004
					}
				}
			}
			JOINT LeftCollar
			{
				OFFSET 2.142401 -0.572701 5.717800
				CHANNELS 6 Xposition Yposition Zposition Zrotation Xrotation Yrotation
				JOINT LeftShoulder
				{
					OFFSET 5.674000 0.000000 0.000000
					CHANNELS 6 Xposition Yposition Zposition Zrotation Xrotation Yrotation
					JOINT LeftElbow
					{
						OFFSET 0.000000 0.000000 -12.238701
						CHANNELS 6 Xposition Yposition Zposition Zrotation Xrotation Yrotation
						JOINT LeftWrist
						{
							OFFSET 0.000000 0.000000 -10.253700
							CHANNELS 6 Xposition Yposition Zposition Zrotation Xrotation Yrotation
							End Site
							{
								OFFSET 0.000000 0.000000 -2.173901
							}
						}
					}
				}
			}
			JOINT RightCollar
			{
				OFFSET -2.882599 -1.580101 6.695801
				CHANNELS 6 Xposition Yposition Zposition Zrotation Xrotation Yrotation
				JOINT RightShoulder
				{
					OFFSET -4.235600 0.000000 0.000000
					CHANNELS 6 Xposition Yposition Zposition Zrotation Xrotation Yrotation
					JOINT RightElbow
					{
						OFFSET 0.000000 0.000000 -10.709900
						CHANNELS 6 Xposition Yposition Zposition Zrotation Xrotation Yrotation
						JOINT RightWrist
						{
							OFFSET 0.000000 0.000000 -11.716801
							CHANNELS 6 Xposition Yposition Zposition Zrotation Xrotation Yrotation
							End Site
							{
								OFFSET 0.000000 0.000000 -2.173901
							}
						}
					}
				}
			}
		}
	}
	JOINT LeftHip
	{
		OFFSET 2.279499 0.210400 -2.475502
		CHANNELS 6 Xposition Yposition Zposition Zrotation Xrotation Yrotation
		JOINT LeftKnee
		{
			OFFSET 0.000000 -0.000004 -20.742800
			CHANNELS 6 Xposition Yposition Zposition Zrotation Xrotation Yrotation
			JOINT LeftAnkle
			{
				OFFSET 0.000000 0.000000 -16.666000
				CHANNELS 6 Xposition Yposition Zposition Zrotation Xrotation Yrotation
				End Site
				{
					OFFSET 0.000000 -8.310898 0.000000
				}
			}
		}
	}
	JOINT RightHip
	{
		OFFSET -1.961899 0.232300 -2.727402
		CHANNELS 6 Xposition Yposition Zposition Zrotation Xrotation Yrotation
		JOINT RightKnee
		{
			OFFSET 0.000000 -0.000004 -20.526800
			CHANNELS 6 Xposition Yposition Zposition Zrotation Xrotation Yrotation
			JOINT RightAnkle
			{
				OFFSET 0.000000 0.000000 -16.867300
				CHANNELS 6 Xposition Yposition Zposition Zrotation Xrotation Yrotation
				End Site
				{
					OFFSET 0.000000 -7.186401 0.000000
				}
			}
		}
	}
}
MOTION
Frames: 7
Frame Time: 0.041667
-11.100698 29.629995 42.259987 1708.654985 12.197866 -4.932633 -0.637404 0.831596 5.390092 -7.356815 23.750805 7.029699 -0.000001 0.000002 4.429895 4.655937 -4.579024 -0.521833 0.000000 -0.000010 10.301396 334.006824 22.406637 -5.644260 -0.000001 -0.000000 2.173899 -362.586985 -0.925233 -5.690483 2.142399 -0.572701 5.717803 -5.423764 0.625823 -20.937083 5.674003 0.000006 0.000001 285.413443 -723.905905 -87.372074 0.000002 -0.000003 -12.238703 -878.074257 202.249510 -166.198952 -0.000004 -0.000005 -10.253696 -261.511715 23.599764 -6.429572 -2.882607 -1.580107 6.695792 7.613409 9.865364 -2.618343 -4.235606 -0.000003 0.000004 -1056.114667 -1.435067 -635.707563 0.000003 0.000000 -10.709899 173.789983 -174.703603 178.580692 -0.000007 0.000004 -11.716797 -1029.429501 0.546603 -8.079445 2.279500 0.210399 -2.475508 410.911557 -43.331229 36.630561 -0.000006 -0.000006 -20.742804 -488.795822 20.614129 77.009864 0.000001 0.000007 -16.665998 428.383263 14.770141 35.391107 -1.961898 0.232290 -2.727415 -1146.645382 -36.942888 -43.459568 0.000002 -0.000004 -20.526798 967.508317 118.371673 -205.149841 -0.000001 0.000001 -16.867302 -17.347048 20.104979 -3.439453
-10.295393 30.399500 42.244293 1710.461106 12.761666 -5.112322 -0.637406 0.831601 5.390100 -7.427073 23.903155 6.988084 -0.000003 0.000002 4.429906 4.731119 -4.693510 -0.530304 0.000000 0.000000 10.301401 333.990950 22.286337 -5.646601 -0.000000 0.000002 2.173901 -362.311182 -1.026700 -5.668182 2.142399 -0.572701 5.717802 -5.559560 0.851883 -20.455532 5.673996 0.000003 0.000004 284.984124 -722.348294 -87.820858 -0.000002 -0.000000 -12.238697 -878.684548 200.326511 -168.251943 0.000003 -0.000006 -10.253702 -259.746794 23.491213 -5.932056 -2.882603 -1.580098 6.695801 7.217910 9.656901 -2.918325 -4.235612 0.000001 -0.000002 -1056.048660 -1.691078 -635.511126 -0.000002 0.000005 -10.709902 173.593943 -174.575742 178.493976 0.000000 0.000002 -11.716796 -1028.765060 0.776328 -7.033932 2.279503 0.210402 -2.475503 410.346318 -43.160843 36.941399 -0.000010 -0.000003 -20.742804 -487.274165 19.839601 78.960197 0.000000 -0.000003 -16.666000 428.172620 13.359061 35.622042 -1.961900 0.232298 -2.727400 -1146.754665 -37.395378 -44.523343 0.000006 -0.000004 -20.526804 963.763734 119.116436 -202.455372 -0.000000 0.000002 -16.867304 -15.904140 21.266501 -3.656193
-9.486298 31.148397 42.243298 1711.989648 13.415582 -5.280169 -0.637403 0.831600 5.390090 -7.429209 24.006218 6.973551 -0.000004 -0.000001 4.429900 4.783724 -4.810132 -0.538063 -0.000002 0.000000 10.301397 334.384424 22.063634 -5.943001 0.000002 -0.000005 2.173893 -362.262660 -1.084683 -5.571953 2.142391 -0.572698 5.717803 -5.673142 1.124595 -19.979285 5.674000 0.000000 -0.000009 284.549506 -720.582007 -88.173617 0.000000 -0.000003 -12.238695 -878.826015 198.234151 -170.171103 0.000007 -0.000003 -10.253701 -258.203280 23.217727 -5.359764 -2.882602 -1.580098 6.695791 6.923242 9.509576 -3.200233 -4.235607 0.000002 -0.000001 -1055.944404 -2.050500 -635.299336 0.000000 0.000010 -10.709897 173.157972 -174.430901 178.363751 0.000000 0.000002 -11.716801 -1027.800856 1.014403 -5.937028 2.279503 0.210401 -2.475506 409.741354 -42.907002 37.059872 -0.000003 -0.000011 -20.742802 -485.516621 19.459977 80.322861 0.000001 0.000001 -16.666004 427.736499 12.170524 35.596231 -1.961894 0.232300 -2.727407 -1146.951593 -37.859397 -45.611505 0.000000 -0.000004 -20.526800 959.910196 120.117387 -199.528103 -0.000001 0.000003 -16.867304 -13.706190 22.866148 -3.617921
-8.669199 31.877399 42.253193 1713.255364 14.146927 -5.419490 -0.637402 0.831599 5.390102 -7.371804 24.087526 6.951616 -0.000001 -0.000004 4.429896 4.805464 -4.927174 -0.544591 -0.000004 -0.000005 10.301402 335.154569 21.689819 -6.443706 -0.000002 0.000005 2.173901 -362.461528 -1.113930 -5.314719 2.142396 -0.572707 5.717805 -5.719559 1.379535 -19.490522 5.674001 0.000006 -0.000005 284.072431 -718.549506 -88.415262 -0.000003 -0.000001 -12.238700 -878.465818 196.007332 -171.948114 -0.000002 -0.000002 -10.253697 -256.923248 22.669482 -4.575423 -2.882607 -1.580105 6.695800 6.683397 9.370624 -3.400887 -4.235607 -0.000000 -0.000005 -1055.752066 -2.460548 -635.100605 -0.000000 0.000002 -10.709909 174.001296 -174.207185 178.341171 0.000008 -0.000000 -11.716802 -1028.059857 1.251087 -4.848442 2.279501 0.210402 -2.475501 409.073253 -42.656956 36.979665 -0.000009 -0.000006 -20.742802 -483.552040 19.366600 81.082644 -0.000000 0.000002 -16.666008 427.286171 11.132119 35.507719 -1.961907 0.232300 -2.727400 -1147.223817 -38.339150 -46.716086 0.000001 -0.000010 -20.526802 956.391720 121.413169 -196.729187 0.000003 0.000000 -16.867308 -10.777789 24.761025 -3.618322
-7.840590 32.590996 42.267296 1714.303934 14.945417 -5.511234 -0.637403 0.831595 5.390105 -7.281951 24.154827 6.909019 0.000002 -0.000005 4.429904 4.771802 -5.055072 -0.450853 -0.000002 -0.000012 10.301401 335.528918 21.350176 -6.535730 -0.000003 0.000000 2.173893 -362.129772 -1.146781 -5.316653 2.142397 -0.572706 5.717805 -6.617970 0.374293 -19.129866 5.673999 0.000008 -0.000010 284.399515 -716.432803 -87.183178 -0.000001 -0.000001 -12.238699 -878.090540 194.040470 -173.367727 -0.000005 -0.000001 -10.253698 -253.531212 22.252382 -4.359679 -2.882600 -1.580104 6.695792 6.592059 9.297300 -3.719364 -4.235610 0.000006 -0.000004 -1055.525960 -2.843383 -634.781280 -0.000002 -0.000000 -10.709903 176.204961 -173.866495 178.442640 0.000002 -0.000005 -11.716803 -1029.770464 1.474263 -3.809067 2.279504 0.210402 -2.475498 408.506675 -42.412623 36.861103 -0.000007 -0.000008 -20.742807 -481.532599 19.551637 81.263091 -0.000005 0.000007 -16.666000 426.834067 10.201924 35.277527 -1.961900 0.232301 -2.727398 -1147.636689 -38.810586 -47.942505 0.000004 -0.000006 -20.526802 953.213660 122.759113 -194.111230 -0.000004 0.000004 -16.867304 -7.042042 26.793060 -3.705952
-6.998302 33.292698 42.280590 1715.173499 15.816488 -5.556767 -0.637403 0.831603 5.390095 -7.180193 24.190780 6.841168 -0.000006 0.000005 4.429904 4.732607 -5.159013 -0.466060 0.000000 0.000001 10.301398 336.218275 20.778141 -6.712594 0.000002 -0.000003 2.173901 -361.993305 -1.171345 -5.261580 2.142403 -0.572703 5.717799 -6.622032 0.429888 -18.808674 5.673995 0.000003 -0.000004 284.649172 -715.090316 -87.181416 0.000004 0.000001 -12.238693 -877.840282 192.310355 -174.546782 -0.000003 -0.000004 -10.253698 -253.494111 21.385759 -3.055227 -2.882601 -1.580096 6.695794 6.545628 9.273043 -3.842036 -4.235609 -0.000000 -0.000005 -1055.264227 -3.244379 -634.421247 -0.000010 0.000003 -10.709904 180.019662 -173.414719 178.728907 0.000002 -0.000003 -11.716800 -1033.206104 1.934473 -2.887098 2.279505 0.210406 -2.475503 408.504516 -42.154992 37.050655 -0.000001 -0.000016 -20.742804 -479.865923 19.817596 81.004992 -0.000003 0.000003 -16.666002 426.495344 9.367965 35.002022 -1.961893 0.232300 -2.727402 -1148.305501 -39.195105 -49.361446 0.000006 0.000002 -20.526794 951.086138 124.118075 -192.125394 -0.000002 0.000003 -16.867300 -2.974992 28.854882 -3.887098
-6.141493 33.986496 42.287498 1715.899248 16.738553 -5.559097 -0.637403 0.831604 5.390101 -7.050482 24.213620 6.743693 -0.000003 -0.000000 4.429894 4.664626 -5.252541 -0.481382 -0.000004 0.000004 10.301396 336.996097 20.084071 -6.864200 -0.000002 -0.000004 2.173898 -361.933391 -1.194070 -5.083058 2.142395 -0.572698 5.717794 -6.550539 0.435306 -18.579475 5.674005 0.000009 0.000009 285.343775 -714.308451 -87.202869 0.000000 0.000002 -12.238707 -877.905415 190.987553 -175.418205 0.000002 0.000002 -10.253704 -253.475205 20.414389 -1.697349 -2.882604 -1.580095 6.695792 6.534672 9.249067 -3.891220 -4.235599 0.000003 0.000003 -1054.977577 -3.640399 -634.022910 0.000002 0.000001 -10.709901 185.512022 -172.871118 179.256580 -0.000005 0.000002 -11.716806 -1038.275962 2.108001 -1.920649 2.279500 0.210404 -2.475509 408.650956 -42.039350 37.327383 -0.000008 -0.000010 -20.742798 -478.294816 20.119758 80.275145 -0.000005 -0.000003 -16.665998 426.276778 8.674954 34.756999 -1.961903 0.232299 -2.727411 -1149.061411 -39.620568 -50.890483 0.000010 -0.000002 -20.526804 949.645132 125.280873 -190.569641 0.000004 0.000001 -16.867302 1.305875 30.772973 -4.159158
